<svg width="16" height="16" viewBox="0 0 16 16" version="1.1" xmlns="http://www.w3.org/2000/svg" xmlns:xlink="http://www.w3.org/1999/xlink">
<title>share</title>
<desc>Created using Figma</desc>
<g id="Canvas" transform="translate(-8379 877)">
<g id="share">
<g id="Shape">
<use xlink:href="#path0_fill" transform="translate(8379 -877)" fill="#767676"/>
</g>
</g>
</g>
<defs>
<path id="path0_fill" fill-rule="evenodd" d="M 5.30273 3.10138C 5.25391 3.11328 5.20215 3.11932 5.14941 3.11932C 4.96973 3.12 4.80176 3.04669 4.68945 2.91998C 4.5918 2.8103 4.5459 2.66913 4.56348 2.52832C 4.57324 2.44366 4.60645 2.3634 4.65723 2.29401C 4.69043 2.24799 4.73242 2.20667 4.78125 2.172L 7.63184 0.112C 7.64844 0.102295 7.66504 0.0940552 7.68359 0.0873413L 7.73242 0.0653687L 7.77734 0.0419922L 7.78418 0.0373535C 7.85352 0.0126343 7.92578 0 8 0C 8.07617 -0.000305176 8.15137 0.0137329 8.22168 0.0413208L 8.25781 0.0613403L 8.2666 0.0653687L 8.31641 0.0873413C 8.33398 0.0940552 8.35059 0.102356 8.36719 0.112L 11.2178 2.172C 11.3389 2.2594 11.417 2.38763 11.4346 2.52808C 11.4512 2.66858 11.4062 2.80951 11.3096 2.91931C 11.1973 3.04669 11.0283 3.1203 10.8496 3.11932C 10.7158 3.12006 10.5869 3.07886 10.4824 3.00269L 9.02051 1.94666L 8.58887 1.63464L 8.58887 10.828C 8.58887 11.1207 8.32422 11.36 8 11.36C 7.6748 11.36 7.41113 11.1207 7.41113 10.8273L 7.41113 1.63403L 6.97754 1.94666L 5.5166 3.00269C 5.45215 3.0495 5.37988 3.08264 5.30273 3.10138ZM 13.1309 5.66534L 15.4111 5.66534C 15.7334 5.66388 15.9971 5.90161 16 6.19733L 16 15.468C 16 15.7614 15.7354 16 15.4111 16L 0.588867 16C 0.264648 16 0 15.7614 0 15.468L 0 6.19733C 0.00292969 5.90161 0.266602 5.66388 0.588867 5.66534L 3.43945 5.66534C 3.76172 5.66388 4.02539 5.90161 4.02832 6.19733C 4.02832 6.49066 3.76367 6.73004 3.43945 6.73004L 1.17773 6.73004L 1.17773 14.9354L 14.8223 14.9354L 14.8223 6.72937L 13.1309 6.72937C 12.8057 6.72937 12.542 6.49066 12.542 6.19733C 12.5449 5.90161 12.8086 5.66388 13.1309 5.66534Z"/>
</defs>
</svg>
